<svg xmlns="http://www.w3.org/2000/svg" viewBox="0 0 64 64">
  <defs>
    <linearGradient id="edge" x1="10" x2="54" y1="8" y2="58">
      <stop stop-color="#22d3ee" />
      <stop offset="0.5" stop-color="#a78bfa" />
      <stop offset="1" stop-color="#f472b6" />
    </linearGradient>
    <radialGradient id="glow" cx="50%" cy="28%" r="70%">
      <stop stop-color="#0ea5e9" stop-opacity="0.35" />
      <stop offset="1" stop-color="#020617" stop-opacity="0" />
    </radialGradient>
  </defs>
  <rect width="64" height="64" rx="18" fill="#020617" />
  <rect width="64" height="64" rx="18" fill="url(#glow)" />
  <path
    d="M12 18.5A6.5 6.5 0 0 1 18.5 12h27A6.5 6.5 0 0 1 52 18.5v27a6.5 6.5 0 0 1-6.5 6.5h-27A6.5 6.5 0 0 1 12 45.5v-27Z"
    fill="none"
    stroke="url(#edge)"
    stroke-width="3"
  />
  <path
    d="M20 43V22l12 11 12-11v21"
    fill="none"
    stroke="#cffafe"
    stroke-linecap="round"
    stroke-linejoin="round"
    stroke-width="4"
  />
  <path
    d="M20 22h24"
    fill="none"
    stroke="#67e8f9"
    stroke-linecap="round"
    stroke-width="4"
  />
  <circle cx="49" cy="15" r="5" fill="#bef264" />
  <circle cx="49" cy="15" r="2" fill="#020617" />
</svg>
